<mxfile host="Electron" agent="Mozilla/5.0 (Windows NT 10.0; Win64; x64) AppleWebKit/537.36 (KHTML, like Gecko) draw.io/24.7.8 Chrome/128.0.6613.36 Electron/32.0.1 Safari/537.36" version="24.7.8">
  <diagram id="R2lEEEUBdFMjLlhIrx00" name="Page-1">
    <mxGraphModel dx="1912" dy="1115" grid="1" gridSize="10" guides="1" tooltips="1" connect="1" arrows="1" fold="1" page="1" pageScale="1" pageWidth="850" pageHeight="1100" math="0" shadow="0" extFonts="Permanent Marker^https://fonts.googleapis.com/css?family=Permanent+Marker">
      <root>
        <mxCell id="0" />
        <mxCell id="1" parent="0" />
        <mxCell id="s-XnbMuJp0DQDZAkzYUx-90" value="" style="rounded=0;whiteSpace=wrap;html=1;" vertex="1" parent="1">
          <mxGeometry x="860" y="380" width="590" height="910" as="geometry" />
        </mxCell>
        <mxCell id="s-XnbMuJp0DQDZAkzYUx-1" value="tipoMedicamento" style="shape=table;startSize=30;container=1;collapsible=1;childLayout=tableLayout;fixedRows=1;rowLines=0;fontStyle=1;align=center;resizeLast=1;" vertex="1" parent="1">
          <mxGeometry x="80" y="400" width="250" height="100" as="geometry" />
        </mxCell>
        <mxCell id="s-XnbMuJp0DQDZAkzYUx-2" value="" style="shape=partialRectangle;collapsible=0;dropTarget=0;pointerEvents=0;fillColor=none;points=[[0,0.5],[1,0.5]];portConstraint=eastwest;top=0;left=0;right=0;bottom=1;" vertex="1" parent="s-XnbMuJp0DQDZAkzYUx-1">
          <mxGeometry y="30" width="250" height="30" as="geometry" />
        </mxCell>
        <mxCell id="s-XnbMuJp0DQDZAkzYUx-3" value="PK" style="shape=partialRectangle;overflow=hidden;connectable=0;fillColor=none;top=0;left=0;bottom=0;right=0;fontStyle=1;" vertex="1" parent="s-XnbMuJp0DQDZAkzYUx-2">
          <mxGeometry width="30" height="30" as="geometry">
            <mxRectangle width="30" height="30" as="alternateBounds" />
          </mxGeometry>
        </mxCell>
        <mxCell id="s-XnbMuJp0DQDZAkzYUx-4" value="id int NOT NULL " style="shape=partialRectangle;overflow=hidden;connectable=0;fillColor=none;top=0;left=0;bottom=0;right=0;align=left;spacingLeft=6;fontStyle=5;" vertex="1" parent="s-XnbMuJp0DQDZAkzYUx-2">
          <mxGeometry x="30" width="220" height="30" as="geometry">
            <mxRectangle width="220" height="30" as="alternateBounds" />
          </mxGeometry>
        </mxCell>
        <mxCell id="s-XnbMuJp0DQDZAkzYUx-5" value="" style="shape=partialRectangle;collapsible=0;dropTarget=0;pointerEvents=0;fillColor=none;points=[[0,0.5],[1,0.5]];portConstraint=eastwest;top=0;left=0;right=0;bottom=0;" vertex="1" parent="s-XnbMuJp0DQDZAkzYUx-1">
          <mxGeometry y="60" width="250" height="30" as="geometry" />
        </mxCell>
        <mxCell id="s-XnbMuJp0DQDZAkzYUx-6" value="" style="shape=partialRectangle;overflow=hidden;connectable=0;fillColor=none;top=0;left=0;bottom=0;right=0;" vertex="1" parent="s-XnbMuJp0DQDZAkzYUx-5">
          <mxGeometry width="30" height="30" as="geometry">
            <mxRectangle width="30" height="30" as="alternateBounds" />
          </mxGeometry>
        </mxCell>
        <mxCell id="s-XnbMuJp0DQDZAkzYUx-7" value="tipoMedicamento char(50) NOT NULL" style="shape=partialRectangle;overflow=hidden;connectable=0;fillColor=none;top=0;left=0;bottom=0;right=0;align=left;spacingLeft=6;" vertex="1" parent="s-XnbMuJp0DQDZAkzYUx-5">
          <mxGeometry x="30" width="220" height="30" as="geometry">
            <mxRectangle width="220" height="30" as="alternateBounds" />
          </mxGeometry>
        </mxCell>
        <mxCell id="s-XnbMuJp0DQDZAkzYUx-8" value="distribuidor" style="shape=table;startSize=30;container=1;collapsible=1;childLayout=tableLayout;fixedRows=1;rowLines=0;fontStyle=1;align=center;resizeLast=1;" vertex="1" parent="1">
          <mxGeometry x="70" y="710" width="250" height="100" as="geometry" />
        </mxCell>
        <mxCell id="s-XnbMuJp0DQDZAkzYUx-9" value="" style="shape=partialRectangle;collapsible=0;dropTarget=0;pointerEvents=0;fillColor=none;points=[[0,0.5],[1,0.5]];portConstraint=eastwest;top=0;left=0;right=0;bottom=1;" vertex="1" parent="s-XnbMuJp0DQDZAkzYUx-8">
          <mxGeometry y="30" width="250" height="30" as="geometry" />
        </mxCell>
        <mxCell id="s-XnbMuJp0DQDZAkzYUx-10" value="PK" style="shape=partialRectangle;overflow=hidden;connectable=0;fillColor=none;top=0;left=0;bottom=0;right=0;fontStyle=1;" vertex="1" parent="s-XnbMuJp0DQDZAkzYUx-9">
          <mxGeometry width="30" height="30" as="geometry">
            <mxRectangle width="30" height="30" as="alternateBounds" />
          </mxGeometry>
        </mxCell>
        <mxCell id="s-XnbMuJp0DQDZAkzYUx-11" value="id int NOT NULL " style="shape=partialRectangle;overflow=hidden;connectable=0;fillColor=none;top=0;left=0;bottom=0;right=0;align=left;spacingLeft=6;fontStyle=5;" vertex="1" parent="s-XnbMuJp0DQDZAkzYUx-9">
          <mxGeometry x="30" width="220" height="30" as="geometry">
            <mxRectangle width="220" height="30" as="alternateBounds" />
          </mxGeometry>
        </mxCell>
        <mxCell id="s-XnbMuJp0DQDZAkzYUx-12" value="" style="shape=partialRectangle;collapsible=0;dropTarget=0;pointerEvents=0;fillColor=none;points=[[0,0.5],[1,0.5]];portConstraint=eastwest;top=0;left=0;right=0;bottom=0;" vertex="1" parent="s-XnbMuJp0DQDZAkzYUx-8">
          <mxGeometry y="60" width="250" height="30" as="geometry" />
        </mxCell>
        <mxCell id="s-XnbMuJp0DQDZAkzYUx-13" value="" style="shape=partialRectangle;overflow=hidden;connectable=0;fillColor=none;top=0;left=0;bottom=0;right=0;" vertex="1" parent="s-XnbMuJp0DQDZAkzYUx-12">
          <mxGeometry width="30" height="30" as="geometry">
            <mxRectangle width="30" height="30" as="alternateBounds" />
          </mxGeometry>
        </mxCell>
        <mxCell id="s-XnbMuJp0DQDZAkzYUx-14" value="distribuidor char(50) NOT NULL" style="shape=partialRectangle;overflow=hidden;connectable=0;fillColor=none;top=0;left=0;bottom=0;right=0;align=left;spacingLeft=6;" vertex="1" parent="s-XnbMuJp0DQDZAkzYUx-12">
          <mxGeometry x="30" width="220" height="30" as="geometry">
            <mxRectangle width="220" height="30" as="alternateBounds" />
          </mxGeometry>
        </mxCell>
        <mxCell id="s-XnbMuJp0DQDZAkzYUx-15" value="sucursal" style="shape=table;startSize=30;container=1;collapsible=1;childLayout=tableLayout;fixedRows=1;rowLines=0;fontStyle=1;align=center;resizeLast=1;" vertex="1" parent="1">
          <mxGeometry x="70" y="550" width="250" height="130" as="geometry" />
        </mxCell>
        <mxCell id="s-XnbMuJp0DQDZAkzYUx-16" value="" style="shape=partialRectangle;collapsible=0;dropTarget=0;pointerEvents=0;fillColor=none;points=[[0,0.5],[1,0.5]];portConstraint=eastwest;top=0;left=0;right=0;bottom=1;" vertex="1" parent="s-XnbMuJp0DQDZAkzYUx-15">
          <mxGeometry y="30" width="250" height="30" as="geometry" />
        </mxCell>
        <mxCell id="s-XnbMuJp0DQDZAkzYUx-17" value="PK" style="shape=partialRectangle;overflow=hidden;connectable=0;fillColor=none;top=0;left=0;bottom=0;right=0;fontStyle=1;" vertex="1" parent="s-XnbMuJp0DQDZAkzYUx-16">
          <mxGeometry width="30" height="30" as="geometry">
            <mxRectangle width="30" height="30" as="alternateBounds" />
          </mxGeometry>
        </mxCell>
        <mxCell id="s-XnbMuJp0DQDZAkzYUx-18" value="id int NOT NULL " style="shape=partialRectangle;overflow=hidden;connectable=0;fillColor=none;top=0;left=0;bottom=0;right=0;align=left;spacingLeft=6;fontStyle=5;" vertex="1" parent="s-XnbMuJp0DQDZAkzYUx-16">
          <mxGeometry x="30" width="220" height="30" as="geometry">
            <mxRectangle width="220" height="30" as="alternateBounds" />
          </mxGeometry>
        </mxCell>
        <mxCell id="s-XnbMuJp0DQDZAkzYUx-19" value="" style="shape=partialRectangle;collapsible=0;dropTarget=0;pointerEvents=0;fillColor=none;points=[[0,0.5],[1,0.5]];portConstraint=eastwest;top=0;left=0;right=0;bottom=0;" vertex="1" parent="s-XnbMuJp0DQDZAkzYUx-15">
          <mxGeometry y="60" width="250" height="30" as="geometry" />
        </mxCell>
        <mxCell id="s-XnbMuJp0DQDZAkzYUx-20" value="" style="shape=partialRectangle;overflow=hidden;connectable=0;fillColor=none;top=0;left=0;bottom=0;right=0;" vertex="1" parent="s-XnbMuJp0DQDZAkzYUx-19">
          <mxGeometry width="30" height="30" as="geometry">
            <mxRectangle width="30" height="30" as="alternateBounds" />
          </mxGeometry>
        </mxCell>
        <mxCell id="s-XnbMuJp0DQDZAkzYUx-21" value="sucursal char(50) NOT NULL" style="shape=partialRectangle;overflow=hidden;connectable=0;fillColor=none;top=0;left=0;bottom=0;right=0;align=left;spacingLeft=6;" vertex="1" parent="s-XnbMuJp0DQDZAkzYUx-19">
          <mxGeometry x="30" width="220" height="30" as="geometry">
            <mxRectangle width="220" height="30" as="alternateBounds" />
          </mxGeometry>
        </mxCell>
        <mxCell id="s-XnbMuJp0DQDZAkzYUx-69" value="" style="shape=partialRectangle;collapsible=0;dropTarget=0;pointerEvents=0;fillColor=none;points=[[0,0.5],[1,0.5]];portConstraint=eastwest;top=0;left=0;right=0;bottom=0;" vertex="1" parent="s-XnbMuJp0DQDZAkzYUx-15">
          <mxGeometry y="90" width="250" height="30" as="geometry" />
        </mxCell>
        <mxCell id="s-XnbMuJp0DQDZAkzYUx-70" value="" style="shape=partialRectangle;overflow=hidden;connectable=0;fillColor=none;top=0;left=0;bottom=0;right=0;" vertex="1" parent="s-XnbMuJp0DQDZAkzYUx-69">
          <mxGeometry width="30" height="30" as="geometry">
            <mxRectangle width="30" height="30" as="alternateBounds" />
          </mxGeometry>
        </mxCell>
        <mxCell id="s-XnbMuJp0DQDZAkzYUx-71" value="direccion char(150) NOT NULL" style="shape=partialRectangle;overflow=hidden;connectable=0;fillColor=none;top=0;left=0;bottom=0;right=0;align=left;spacingLeft=6;" vertex="1" parent="s-XnbMuJp0DQDZAkzYUx-69">
          <mxGeometry x="30" width="220" height="30" as="geometry">
            <mxRectangle width="220" height="30" as="alternateBounds" />
          </mxGeometry>
        </mxCell>
        <mxCell id="s-XnbMuJp0DQDZAkzYUx-22" value="pedido" style="shape=table;startSize=30;container=1;collapsible=1;childLayout=tableLayout;fixedRows=1;rowLines=0;fontStyle=1;align=center;resizeLast=1;" vertex="1" parent="1">
          <mxGeometry x="470" y="450" width="250" height="230" as="geometry" />
        </mxCell>
        <mxCell id="s-XnbMuJp0DQDZAkzYUx-23" value="" style="shape=partialRectangle;collapsible=0;dropTarget=0;pointerEvents=0;fillColor=none;points=[[0,0.5],[1,0.5]];portConstraint=eastwest;top=0;left=0;right=0;bottom=1;" vertex="1" parent="s-XnbMuJp0DQDZAkzYUx-22">
          <mxGeometry y="30" width="250" height="30" as="geometry" />
        </mxCell>
        <mxCell id="s-XnbMuJp0DQDZAkzYUx-24" value="PK" style="shape=partialRectangle;overflow=hidden;connectable=0;fillColor=none;top=0;left=0;bottom=0;right=0;fontStyle=1;" vertex="1" parent="s-XnbMuJp0DQDZAkzYUx-23">
          <mxGeometry width="30" height="30" as="geometry">
            <mxRectangle width="30" height="30" as="alternateBounds" />
          </mxGeometry>
        </mxCell>
        <mxCell id="s-XnbMuJp0DQDZAkzYUx-25" value="id int NOT NULL " style="shape=partialRectangle;overflow=hidden;connectable=0;fillColor=none;top=0;left=0;bottom=0;right=0;align=left;spacingLeft=6;fontStyle=5;" vertex="1" parent="s-XnbMuJp0DQDZAkzYUx-23">
          <mxGeometry x="30" width="220" height="30" as="geometry">
            <mxRectangle width="220" height="30" as="alternateBounds" />
          </mxGeometry>
        </mxCell>
        <mxCell id="s-XnbMuJp0DQDZAkzYUx-26" value="" style="shape=partialRectangle;collapsible=0;dropTarget=0;pointerEvents=0;fillColor=none;points=[[0,0.5],[1,0.5]];portConstraint=eastwest;top=0;left=0;right=0;bottom=0;" vertex="1" parent="s-XnbMuJp0DQDZAkzYUx-22">
          <mxGeometry y="60" width="250" height="30" as="geometry" />
        </mxCell>
        <mxCell id="s-XnbMuJp0DQDZAkzYUx-27" value="" style="shape=partialRectangle;overflow=hidden;connectable=0;fillColor=none;top=0;left=0;bottom=0;right=0;" vertex="1" parent="s-XnbMuJp0DQDZAkzYUx-26">
          <mxGeometry width="30" height="30" as="geometry">
            <mxRectangle width="30" height="30" as="alternateBounds" />
          </mxGeometry>
        </mxCell>
        <mxCell id="s-XnbMuJp0DQDZAkzYUx-28" value="medicamento char(50) NOT NULL" style="shape=partialRectangle;overflow=hidden;connectable=0;fillColor=none;top=0;left=0;bottom=0;right=0;align=left;spacingLeft=6;" vertex="1" parent="s-XnbMuJp0DQDZAkzYUx-26">
          <mxGeometry x="30" width="220" height="30" as="geometry">
            <mxRectangle width="220" height="30" as="alternateBounds" />
          </mxGeometry>
        </mxCell>
        <mxCell id="s-XnbMuJp0DQDZAkzYUx-45" value="" style="shape=partialRectangle;collapsible=0;dropTarget=0;pointerEvents=0;fillColor=none;points=[[0,0.5],[1,0.5]];portConstraint=eastwest;top=0;left=0;right=0;bottom=0;" vertex="1" parent="s-XnbMuJp0DQDZAkzYUx-22">
          <mxGeometry y="90" width="250" height="30" as="geometry" />
        </mxCell>
        <mxCell id="s-XnbMuJp0DQDZAkzYUx-46" value="" style="shape=partialRectangle;overflow=hidden;connectable=0;fillColor=none;top=0;left=0;bottom=0;right=0;" vertex="1" parent="s-XnbMuJp0DQDZAkzYUx-45">
          <mxGeometry width="30" height="30" as="geometry">
            <mxRectangle width="30" height="30" as="alternateBounds" />
          </mxGeometry>
        </mxCell>
        <mxCell id="s-XnbMuJp0DQDZAkzYUx-47" value="cantidad int NOT NULL" style="shape=partialRectangle;overflow=hidden;connectable=0;fillColor=none;top=0;left=0;bottom=0;right=0;align=left;spacingLeft=6;" vertex="1" parent="s-XnbMuJp0DQDZAkzYUx-45">
          <mxGeometry x="30" width="220" height="30" as="geometry">
            <mxRectangle width="220" height="30" as="alternateBounds" />
          </mxGeometry>
        </mxCell>
        <mxCell id="s-XnbMuJp0DQDZAkzYUx-48" value="" style="shape=partialRectangle;collapsible=0;dropTarget=0;pointerEvents=0;fillColor=none;points=[[0,0.5],[1,0.5]];portConstraint=eastwest;top=0;left=0;right=0;bottom=0;" vertex="1" parent="s-XnbMuJp0DQDZAkzYUx-22">
          <mxGeometry y="120" width="250" height="30" as="geometry" />
        </mxCell>
        <mxCell id="s-XnbMuJp0DQDZAkzYUx-49" value="FK1" style="shape=partialRectangle;overflow=hidden;connectable=0;fillColor=none;top=0;left=0;bottom=0;right=0;" vertex="1" parent="s-XnbMuJp0DQDZAkzYUx-48">
          <mxGeometry width="30" height="30" as="geometry">
            <mxRectangle width="30" height="30" as="alternateBounds" />
          </mxGeometry>
        </mxCell>
        <mxCell id="s-XnbMuJp0DQDZAkzYUx-50" value="tipoMedicamentoId int NOT NULL" style="shape=partialRectangle;overflow=hidden;connectable=0;fillColor=none;top=0;left=0;bottom=0;right=0;align=left;spacingLeft=6;" vertex="1" parent="s-XnbMuJp0DQDZAkzYUx-48">
          <mxGeometry x="30" width="220" height="30" as="geometry">
            <mxRectangle width="220" height="30" as="alternateBounds" />
          </mxGeometry>
        </mxCell>
        <mxCell id="s-XnbMuJp0DQDZAkzYUx-60" value="" style="shape=partialRectangle;collapsible=0;dropTarget=0;pointerEvents=0;fillColor=none;points=[[0,0.5],[1,0.5]];portConstraint=eastwest;top=0;left=0;right=0;bottom=0;" vertex="1" parent="s-XnbMuJp0DQDZAkzYUx-22">
          <mxGeometry y="150" width="250" height="30" as="geometry" />
        </mxCell>
        <mxCell id="s-XnbMuJp0DQDZAkzYUx-61" value="FK2" style="shape=partialRectangle;overflow=hidden;connectable=0;fillColor=none;top=0;left=0;bottom=0;right=0;" vertex="1" parent="s-XnbMuJp0DQDZAkzYUx-60">
          <mxGeometry width="30" height="30" as="geometry">
            <mxRectangle width="30" height="30" as="alternateBounds" />
          </mxGeometry>
        </mxCell>
        <mxCell id="s-XnbMuJp0DQDZAkzYUx-62" value="sucursalId int NOT NULL" style="shape=partialRectangle;overflow=hidden;connectable=0;fillColor=none;top=0;left=0;bottom=0;right=0;align=left;spacingLeft=6;" vertex="1" parent="s-XnbMuJp0DQDZAkzYUx-60">
          <mxGeometry x="30" width="220" height="30" as="geometry">
            <mxRectangle width="220" height="30" as="alternateBounds" />
          </mxGeometry>
        </mxCell>
        <mxCell id="s-XnbMuJp0DQDZAkzYUx-63" value="" style="shape=partialRectangle;collapsible=0;dropTarget=0;pointerEvents=0;fillColor=none;points=[[0,0.5],[1,0.5]];portConstraint=eastwest;top=0;left=0;right=0;bottom=0;" vertex="1" parent="s-XnbMuJp0DQDZAkzYUx-22">
          <mxGeometry y="180" width="250" height="30" as="geometry" />
        </mxCell>
        <mxCell id="s-XnbMuJp0DQDZAkzYUx-64" value="FK3" style="shape=partialRectangle;overflow=hidden;connectable=0;fillColor=none;top=0;left=0;bottom=0;right=0;" vertex="1" parent="s-XnbMuJp0DQDZAkzYUx-63">
          <mxGeometry width="30" height="30" as="geometry">
            <mxRectangle width="30" height="30" as="alternateBounds" />
          </mxGeometry>
        </mxCell>
        <mxCell id="s-XnbMuJp0DQDZAkzYUx-65" value="distribuidorId int NOT NULL" style="shape=partialRectangle;overflow=hidden;connectable=0;fillColor=none;top=0;left=0;bottom=0;right=0;align=left;spacingLeft=6;" vertex="1" parent="s-XnbMuJp0DQDZAkzYUx-63">
          <mxGeometry x="30" width="220" height="30" as="geometry">
            <mxRectangle width="220" height="30" as="alternateBounds" />
          </mxGeometry>
        </mxCell>
        <mxCell id="s-XnbMuJp0DQDZAkzYUx-66" style="edgeStyle=orthogonalEdgeStyle;rounded=0;orthogonalLoop=1;jettySize=auto;html=1;entryX=0;entryY=0.5;entryDx=0;entryDy=0;endArrow=ERoneToMany;endFill=0;startArrow=ERone;startFill=0;exitX=1;exitY=0.5;exitDx=0;exitDy=0;" edge="1" parent="1" source="s-XnbMuJp0DQDZAkzYUx-2" target="s-XnbMuJp0DQDZAkzYUx-48">
          <mxGeometry relative="1" as="geometry" />
        </mxCell>
        <mxCell id="s-XnbMuJp0DQDZAkzYUx-67" style="edgeStyle=orthogonalEdgeStyle;rounded=0;orthogonalLoop=1;jettySize=auto;html=1;entryX=0;entryY=0.5;entryDx=0;entryDy=0;endArrow=ERoneToMany;endFill=0;startArrow=ERone;startFill=0;" edge="1" parent="1" source="s-XnbMuJp0DQDZAkzYUx-16" target="s-XnbMuJp0DQDZAkzYUx-60">
          <mxGeometry relative="1" as="geometry" />
        </mxCell>
        <mxCell id="s-XnbMuJp0DQDZAkzYUx-68" style="edgeStyle=orthogonalEdgeStyle;rounded=0;orthogonalLoop=1;jettySize=auto;html=1;endArrow=ERoneToMany;endFill=0;startArrow=ERone;startFill=0;" edge="1" parent="1" source="s-XnbMuJp0DQDZAkzYUx-9" target="s-XnbMuJp0DQDZAkzYUx-63">
          <mxGeometry relative="1" as="geometry" />
        </mxCell>
        <mxCell id="s-XnbMuJp0DQDZAkzYUx-72" value="" style="shape=image;verticalLabelPosition=bottom;labelBackgroundColor=default;verticalAlign=top;aspect=fixed;imageAspect=0;image=https://logowik.com/content/uploads/images/laravel8530.jpg;" vertex="1" parent="1">
          <mxGeometry x="880" y="550" width="244" height="183.14" as="geometry" />
        </mxCell>
        <mxCell id="s-XnbMuJp0DQDZAkzYUx-73" value="" style="shape=image;verticalLabelPosition=bottom;labelBackgroundColor=default;verticalAlign=top;aspect=fixed;imageAspect=0;image=data:image/png,iVBORw0KGgoAAAANSUhEUgAAAOEAAADhCAMAAAAJbSJIAAABCFBMVEX////v7+/u7u4BYYr39/f8/Pzy8vL19fX+/v7w8PD5+fnkjAPkigAAW4YAVYIAXogAUH/jhgAATn7jgwCetcYAV4Pppj4ARnkAZo5liaXvu4f479xwnbblkxQASnvz9/nqwZvn8PTqzrTqqGHX5+356tTmnUDooDP79+4AQ3e5z9ryy6VmiaXL3OSPscPo8fVKgaDnnkKxx9MycZX22sK0w87mmSU/d5mCpLlikazU3eOcvMu0zNjtwIfhfADvz6Tu3c+pucdafZsyZ43M1NpXjapFc5U0eZt9nbKPqLqCq8BFiafsxJTss2/rrljz17TttmiFmK4AOXHsunfwxYjv597jki7po1RDcigpAAAamUlEQVR4nN1dCXfauNqWjeUt8QLBQ9IQq06dmUCvgUIatqRtStJJ+rXN3OlN+///yWdttgFDAJulVc/pOSjiQY8l61306hUAvCgCK3JUpbEaUeI1qsirIK/So6qdhBJAfli/B0MgzMb61Rkif3B7Oxj4SJJkQfztGKqo8bGEi13o9uo+hL8ZQ1kZlkpWgRXTtVtDP563vwFDTWnYET9SHNuqDn4fhiL4bBemiuP+J/jlGIqsJLDwR8V3rWmG4Wx1WgOVYPHyLBQuiW7xkujWOqAUXvSojFfBe4cwsl23ZCYpWqZZ9YEizfjejCppTtVaoGIBp3P6MBpzPETAL2E6RqERBMPPXdNMDqhd6TXV6OGKz0HhIrEqUYu+J/MqZR1QzzMc4rfQOPQkKXwwyGt0bCM5V0f11bolJLrF+7Aiw/lQzzO8w1PTLpNa/LRgvVVJzFbDrqJfnGEHD5nlazGW6leNBEe76/3SDNUOJjhqjmP5fddJUGz+ygxBB1MxkmNISrPvRONo/NvGyzRd8rRfjmEVEzHf0toYS1KCVrSuWk7rqF9tDK+u2sEASeoMqB1leOsSYQEmGMqhDG53Im3HcizTtrFublv9dqAv1a2M0mI+FJB50SErelSFP6keGahKoEdVpCj4g1i1p/Udy7Gd0V17EC6x41CkSNNVCq+RoqrnerUEVEw1RT8SiNZ2hKepc8Qe7oR+VC6laXQFw7TNbi/Qx6HGVK0pqEW1tlWhZuq4UuCSQXyLa6Z13MBxUjmGY2nXOmUvCSXspm2hgb8dIjC8dKygaxuGZaVq50Zp1FB2nqGg18l6Yh6lYwFU7nY7IRm8yoTrjDXB0Siru85QVHuEYqmRjqXpmoCQf3V1NWxUq0cfLdNJsrTsTrDjDAW5SQbGsutzsEILhlX49Z7hmmPjeI/4F3eToaD4RLZb/3pgoW4BpX4/KiVMENseIiq9dpShoJYrZDC6TXk2VqJbmqR77aSZZdl3gaptm+EcyaODPpl29h0UFpA8BErX6q3EZDWdB1XeijzUeNFVVqDAagReo0oKLBCxZw8BrQEy/57CGwFhHCp8toM7w4iHseuHX5Z4IxmoC0PN6NUiUOrzeikukigFhKFV4iI8mq7zlEkAg78rsafVbsxVl/PQS6ehFmUowjrRz5yOPo71jEEggXpizSl1/OgHd8e2YFgapFLR7i3ZLcUrx4qdOWrrTP/fOYaChrpkLGqDZbsF/X40Va1KFemThtiOMBT1QYFIxQ5asluirA9HkSXpdAJJ3kmGYYt2jbxMvRlYmjYTCjZ7NT6MhjPEMm0HGYZyuE9eqFIwjaU2fT/w9ZlQAFyNIuFYqiJ5cwwjyZjA4iW5lhKp643wQDh9jMUbUazyKFxGCgHUZkN5d9FMLd15ctL1MAa1bK9EcS4UkJYpakDmaaWuTvxB97CKZtQekD7zyzocRouqbTWX++XVS0x1oV0eUMV9NFvKpH6k1A08vG5/DpQmBSNO0SzUo1FZ895TjMWn8NxIBY8QMXxhUscFDaKc14J5UJLXr3CxURpChr4DtkUCSy0T9+k9mMQS1QaewWZ/HlT4egyj/fLKZ7iLDGUPi33DjPfUOJamk5XWHsw3xGCd+zksuwrl3WMoKkeYh3s1xVDQfEy+NJ9hCOVbXGxUqmAHGUpDrIEb/bRuYSPS9J+F8lpcbJRauiLuGkPFJ2vFoTeFJQK/Zlkf0fNQzRb3I5t9qGzQxl8IS4QWnozUQTzZrb7jNhaCuuejaLeQPJfhYr2axzCyhZU5FrMUtQq/QTej7ngrnTcKn1bgHkKwABRgphgdxagPCagle8W/B6egtLn6UfTYIv0IjzkxhS3Lk6dULUGv+tJCUDKocoq1aoS+mNaW3ita0rQ2PpiL67jNDl7uzTZ7RZIMNUFeEEpTo1G0q7owDbVsrxhDYQpqBYagT6Iz7vVM3ZLVHl9uSg3WbmcYks0oy9GyPvgGH8XKkDbcGYaQTNPSQMr64HsuX27qcKcYggc78fpk6JZ6ZHMFzpN2imGA5YXV8bSsDx5xo9jsevIuMaRRRGZdzsoQeCPmS7X7od23eS8GiLHGJU/bpiZUdiHmFZilYffAmuThdGSDMh0RMREkofgkisgEzwVJPA+l1kvcIq7PDd14HmpG6EZMlWuA4gIaIDWhKiRKeI4yuQCUCIcsQNcoeDATlJCTbUEqpDoJI/rvLIZLQAlq3+RKONSyQeXIUFPpVn0zB4YC6jD3VOWBD+L2GVJjt1Bp5MFQ8bhfw25H+NtmKMgBXeVRHmYrqLNBNEaevCsMBeWOOE7L+Rjmn5n6Zhyx9WcHGErUSuygXBiiFhP8LnWirteLMeZdnoPVtYhVsKi0mAcVCv5agYuMrFBTDBc69ZBSpQZEpRx56nIHKNLPVIAGExlOF2SEmqxafZdHaTnUXxOVlaHCT6jLKFbqWaEmtTY+mEvruBIJ6LMqQcxwVSgBh13ZfD1FGaFIyYOhqFfjqMzMDEXILX67uisMBZkuD6Uj3ixTtzS5ww2pYFcYho+dhoIdoRwYCnrA52lH3RGGgtCky0Opj3JgKCjcEe4Od4ahwh57qZoHQ9ljgf/GoZelV3kyjJYHt50DQxGWmcQolaOA2215MQCXPLBHA09bKDMUForMjjIsJGeESjCMyoqRnG2iNLu3Wg5BoQyMvIkZoVaOVEjRAA/xy2PX5RzUZYiYxKBzIgtUnnkxymT3/jYPhrreLsUycWcYHpLQBV/Lg6GgdumbSEI6doThVYXYic18jDrq4sLbk2hXGEJy7svshX/IxWxFn6hMxN6D3WBIz+65V1JOhrnOJKzRhTvCkJy/tEwc+pMLQyWga41V8fNnOC15FoiRI6f1HbqDkRGKCjHABIZZzQzF5GG2/Az0tL5ZB7mleojObI68rFC0LKeXTuRnEAUJ744Zn1awLWamevBGTDl9CAE3kjUiiTWp41LHMD4osjTD2eryEdW/LVPfvm0hyDd4Spn55lTwWQgqXqC3zpBkdrFaaq4M1RbVa6yPaPsMEd6Csplwzs0wv+I+qUDaNkOFOBQdriXn5nrgAuMObJuhjqWhMeLfzI3hkA6i5QTyVv2lbLPbbPGqlRlOLvGow5TTe2kDWSPm5WcganIoK/JO9QCGPHxhsImsEXP8BT4Wznabu1CyQJHCVS0NsawpOKYvG1RGLwaJjbIH/EBXFijWLV7Dt6J45p9t2RZvS0R/zJ2hINADVuE6PeTv33YY9kxm3ufNUAQsvtYoQDkbVDaG+AgJ1jzWwBAx/7fb1rfJEKtXZh+ug2E0iC0kbpHh3wa2fvkX82XoG3wQ6Zu4HYb4kNa6GNJDD2SvTcuL4fKSB5/QNu/1KcmjiFp2ITbgzuG2ng1qsawRaec6BICjCp1eVBWneoAeyJTqAUPpfebh75AjJ2vPGsGqxnRciGep2YufZPS9WzNYDoo2GosRlgIWY+MGmaCy7HIDYuBPM5SbpvuwAsPxgGoR/k0tYYe4Treyj09m6TRDDR05FnXoZsq5p9xwS7i+JYaCxKK9JxhCHIfnepkZCk2+11bYGkO8dWhMMpSGZuR/y8ZQ50YUjkraCkMVb6xZd3wzk3ZL8YjlQ32o2RjKHjOi8Ibpdt5DrLVZ3XGG+h3bAcz08tBG+n0c7LaZrBETMXJU8+40k1ByPYr7WQaKlsnzFvKABQ873U1ljZjIx9Ajj9hPJooAPBa2UPNh1oQPklrlQZn+7GwUz/UyKivs8hAL2L3iGhJu4PGcCQX7Xsme6sFnDI2WmhUqgxeDm+EEa8gP3IWlmT3rvHrED2MEK0Jlsy2IJ8rsJ44QqP+JUybaVTUzQ+Az1S0RqbtJhsSb6LT0uFteIiekNULKwlCzGNINSvy83q4GlXGXG3uE8anuqFu3iUmK529mhhJfTg0DrQSVkWGD6N71mCH3ApIF1SqgxaFmMFQgv3vCbg22wHBANNMHPeoWm1Nm44hsnbazM5Sb/ISi6RzVszGMjJ/Fu6Xj3TWrI0XdYkdC7VsSeerE+s7KDEXYjpIxO67Z8OK9iTVljRjLzwDuaUoaiWWNQBYX0LDFTg2tlOphLGsEbMUZNC17VPWgvOasEbQQ/Ugm2r9NA0OAKAdsWbA8QAbRMqG2IFSa1sZ6haLsUoSj2Q+Wgcq4j098flaHbuSLCtu9dXA2D/omNvQFoXCZddLZt8buDTHMVh0tDJWNoQjJ0uLWJxhiu5+6WdiuRsa8+l6vNpb83XE7w8SZsjUyZJmwjUPaLemBhX2TEF/yJtpVApf55gDU6LpmIjOx4Zo3SF8EKiNDoUmOsNFBFCFzAFLvWJ0uEL6cB8OQ422v4zhGgmPnSpfXz1AhqrZ1BAnDO9qBGjEZ2XJK1NY8bn+QoRQ0uqV4uhr2nU86u1aGmm5HgyhG++/0i9RrXarr+TDEJ4d0ffD5kx1lRLcLQz2U42tlKOhlMoiHCC/xVP1gryWAxFdGdo9yu8FDlCAKWiWXzVar0m/q4upejKjR3EMSxKo3OzibOdW7OUPgkYdtDkE2eZjSq6s+v3jKNBsJIy2vrBFj8RaAp1BuwwHTSh9YhAe9sc0yoLpsqofneiWhQdVkm1N2tanOgYqprpyfQaLuGsvtMA9u6S0/54PIsX2c4Wx1vXRGrzQ1nKzs9zpBOMIzoPK4h1RD7AhBlBDRjxLyQ5Kx1Bms4W6EkPOwwE4RmZ+hvEaGohKMXffgdKUY6opYkK013f7gddnhBbsF8Wivi6Eg+UmKdl1PQJG31G5E8by5MgSgbTAHtBGANTIUYZBMgzwO9UCDbKX1MAQey8FoFIaStjaGYQO/RUWUU6uiCagHFydJQuJiUMsyBKBcoz6TSlVX1sYw/JLSvhtZ1ujjdJZdiJOWmTdUiq+BIfC7VOG3W9Gx8lyyRoxjiaIk+b7vpUL13VAoesT7kIe0mOpV845OIHM0ff/r6lkjUg5CEEmbBqWGo2geqUtALdcrCNojuqcX2m1wolWe+RlmQml6tVQoDfOASu0V9hDRa+6sUoP6TXLUvBfK16bBRsly/DygZvaqfkivpbpTZSFX22KxbgmgbZqtxZ0rKzAEEr3mLlxv5C0wDKGuzNpwrQwBuLWJ46SlahufpQTK7+Bj++tkCNAR1uLsPtgOw3A1qHnrZcjSMdmh5b8VhkAt2+JiLsDlGCZsQES11CDeMt4ow1DD6uhKTlCkV7KkyKg5CEu7PWyEpT2iXoZ41yvPLJOLQJU7al5Q4ZyQtGGj/7FrlNySaZPCfKosF8l4yTE/wxwo9aav5gGl6ZJ/0ye3oadeLlmqqpNQG7rUXoDlflYoUVZgs/1xZDpG6s2ZBcMxjSqf1ptmGELd/J+SCUrRvatqwZ5x/alhl9xOr46i7dAtMARBK8gC5ffDIZoaPMNwHNM1R5/6Qw+uwz5chiHwGnIGqO7UBb3hSlM7PGxVb+qBp09AbYdhNqhPY/PTMWuHR5+DJgaR4ka/NMN6PIahcOj2bj1sDBIBtD4/zUYZ8uQgBatTrtPcEnOgMmeNWFSI5Qgl8dDhghUsApVLqodV3BIrQ0F+6gt7mvVnoTJljSBVK6rLWaBuE1djhF9eZ9YIXNaSKv4ZqOiCkxLZsFjvDulWGOo82yl2NUvP7JD+kgyBP+JKjdmpQ3ke1C/KENSjME/HbijzoH5VhiBwI9W0Uqj/jgxB2+KxNZZj3zfXwDCjtMgOFcT30+LL22dBZcoakSn0IDMU8KqJgL5Spw7U3LNGkLKeC9EXgdLBsBZHgTmlHpLyPm/BsHjVFqD4Rj4p7qEPpqB+RdtiDKp5n5ipjlWfgvrlGYaSsRvdbFqwKo3fkGGopcZhElapKv2GDIF/58b309MzYL8Zw1A29ngkX8Es+L8fQ1VUYNAzmGFsf2rmljWCdWtb8nAMSlb9B5OuOWYXTWWNELRQe3gma4QQagrPpnpYIAEFr8oBavwMTKjZNUaEo9n1ou+FWKIgQwBRdJp3hjIpAegpCRUoPdUDrZqnlyJaNBTvf6FpZTI68QKnoOJpl6LiNhs2iaOLMqzhbkmo3jNct+IaZTSToYTKHbdSKx32An2c4YIGAQDHZxcXp6enr69fX19ffwnLKSuvT5WYoX4WNiMNacEfLs5gIqyD/u31y3QlXpc/4x0NO7G7pngtk25QGWZHnMFQ97suvVTdCWfA8gxl+fjrj5ODIi775F+iHHyjzTRZP/v+82SvOFn2T35+PWYHDwT0ksK8m2GmaDDohktOnNU91Ozic1POqJnOEB3GnnSTHkhbgqGIzn4c7O/v76WX/Z+0mXJxglulNAsrD948IpqM8mWR1B3MMjVFRf1sG5YbHRwOYiOLJQpPYVhONirdLsdQRK9nsiP9/we/iJrypTi3VfGFthBDfEKi3nUse5DW+UINpjGERrINTXmxOEP5bG+fD0VaKf6JRaP8nhOcbkHrD76gxRiGkjK0OQyDUaR3SlgduleMc7FMM2wwN3qHDnR1SYavaJ+KP16kl/fh4MhP79hgFU++Tvz9ssiYn8mLMRRwDJZj/jtIMDT67BbCDpqOkaOXOBecFj2KzhjyRs+FFwjHJ/t0Mp6TKsRL9D0UtkJfiozgF9wsaoS7cM7+VnwZtpSTDFlJDQKsj0zHSzIcRLeNTKVdaFPyFf+/BmO4TNYG/cMB7dITmtNKfcVm8nUKuHpNWO1/VUOx9ZozfOZ3odL/tx824gzv4BF92Tr6xIaRQG+wKBgtyMdQXUrVOiYM9y/PhTFVa2LDiDO8kKeh2DTY/wu35AzV57axFNgv+bIYMQRX1B9gB7G6RxYvKaCpLuwbcBQxfE5dpu4gbYKhMEfzpgz3T840YVrzfnrzDMMxKNYrUUH9qi5EDFVgkEE0jiJ0ypDeqhquRSocYwh9WtIYegEtUoLh/pO2MsPzP1dgGBY4DN/RmCG7lcCMw8Hxj8ksMxxONZtkqLKtA7spTzGU3rqGaZkmjb3a1hiS4RESY6h4I0olVuk0/FssRUxIfIIhVXNqzemsgupb8rDYNRzHbKX5sPkxJHIjZghpuknrUzJNgOyzHAJYUI4zpH+opDDU31IhS7NGHO8zMQBDO2bDYzjOUPapI8CMcj2EP8bz3da8JRhKYwzP37Bl8gtSE1IQW0gbZRiuyyzxlOUkx9Bm0h4swRCwWcoyf5weMGF+cPlHXL6/Pj0T0DTDiUVLzHGWavwaNbcOuPHNU6Y5QVgVM8SWdsxwKtVDgiH5+DJV5SwW995cy4imekiM4WTWiLBEYxg2jBgKC2aN4Ax1rGrRNFbOkRKJ8I9kPTG6WLOKGJKHyxnGS2+s7d3yWUo/o4s/D9KtouLeI1W1UMRwHIoqgHwMQzmupWht87NGjDFkQQ7OgJ5XVAFLdFEa4gN3elIvlVIY8rmi1jlDWqEh5fHVj9DwnbIXQqPojYqn+SRDDjXBcGHNexZDFm4UmokiZUgvYgi7ir8qrcqQejEuXn+P38K9gwOuan+XN8gwutqNMBL5Nb0mvRJ8bJbOZXg7xXDSE6Wqx1/YQBJBuTGGgO6O22VMKcqqzTJByQuP4RyGrFtiqLOeMqPocaMMqepmdcigeUydqdJfXHwMp2dp2i73+SVhVXy/UYbeiC4tbT3sVTSE7BRlhvdwWYYym81ZGPITEOMMSbbHcDW9g4IGC3zdkTY9hu+5J+N8RYYIXn999fUsjaFHRbw5EHTmpKr5TPKMjeEy8lBMP7oRM5ySh9qLAyJbiieE4vmbJeUhel988f7xxeUrNWaosiAJSKW+2QOwSw3GLuCRDdEY4naRTiNNBklAnaSMxAyngysS8RYRQxXC2MZHuJUK2Eq7/+Yp/G6ktUGoRjrNnNAN9bF4+vi//x2fX75ASb2UTuArZg+COltX2zrTAFP10pIfHdWNnuS49UQHhfqGk7YFeqJexuIp/hj5aZBIoR4ZxeIHhC7o374DUk8ZKtqYXkrxmV4Kf35R3718/eP9+d5ZQi9lc1qlF7raQ5p2MjSmhFSGiJ4IsD/zPb6YIRyzLej0wVtEmizIsY+EDgx2UeFP35mWU7xQZJlAPTIf3f6HJ0aWMDxn1V/PY3QhBNbwT7DX/fidev7uXH19CX58mWIoquymnsMCHaMGTGUIAUujZtz7LD43+kEwxhAep5WzFz/YqP0gr9rTAddVv56dN4m38YxT5B7lRwL+jdmbl18eU5HDH316p0onb36ePKr/XE8xFIQmFRi0WKYkzGDI06gZFbfEiuu65D+WCYQy/PDuIK0wjWb/4JQ+lW9FTrHIWkReftbyL7qwPvHPxWIa7rtHPIZIeQd/XiD47WUKQ5o1iBUbK2zpDIHo8AR0OGnb+H9JhqzrqWV//zuiLw/8c147PGZ0mQXK2dwNjoPjcCbvPcJ30tPJOdq7SKw0nKEMnGinyTjECtsMhgD1SvaMw1WJlWY2w/39gx9nKFoevqWaWKycfDvmi1bz7M2craziRdjmy4+nf2R0/f7r5Tkol5yw2C01wRDvFhJ+pjXAZlPE0MRtSwl/qdI4Gpm2OVmMsTE8mLUlc/nqUZEThvnZq8ticaoZfRg/o1ZauFx9+Ppzb7olKQdkqL+dXDydf/i696SB9l1Y+v2qmszP0Hw4rNRqNfue6muModqrVlut1t+fYdIj3Azq5YdG+O/h5uamXMb/3bSsBMPjv/5IK9+vT48RGjvooqLjx+tk63++XV+z93P/J1eLsCdeQMLZ6fX1dQr0X2Rpho/7706K3580kStvYOyoQvibKv4PjJ9e4D2Rxw5CSBKA5F8cHFDmaynJ6UDDCCIaPPRARSlnKlBIkxhXrIQv6TWTFZfHIHnwIlxsI5/FGDhJGyFhrxf5hVnnUQVNUbSEMrmIvyDW2m6mtLYsCSjY1tM+fmdTodaY+5Jr8axb/Ht8DK35mvciUKRXF+/oKO6doeWhsuTVn/HgQ+WwwDTanBiCixO6NJ08ok3eDghmFNRm12yS22BzYQjO9v4g/w4utI0xVLzOYXpxXX7xRlPNiyGgDh5V1TY3hgoy0gvXAAwjyP00As47t0GGs5UZzM81/N04urEWhoZtdodSlm7tOsP+2wBm61aODP8fnFKL677p4r4AAAAASUVORK5CYII=;" vertex="1" parent="1">
          <mxGeometry x="1190" y="460" width="60" height="60" as="geometry" />
        </mxCell>
        <mxCell id="s-XnbMuJp0DQDZAkzYUx-74" value="" style="shape=image;verticalLabelPosition=bottom;labelBackgroundColor=default;verticalAlign=top;aspect=fixed;imageAspect=0;image=https://miro.medium.com/v2/resize:fit:522/0*Hdm7hBTZ-hKlbtlV.png;" vertex="1" parent="1">
          <mxGeometry x="1007.8399999999999" y="1110" width="152.19" height="100" as="geometry" />
        </mxCell>
        <mxCell id="s-XnbMuJp0DQDZAkzYUx-75" value="" style="shape=image;verticalLabelPosition=bottom;labelBackgroundColor=default;verticalAlign=top;aspect=fixed;imageAspect=0;image=https://cpwp.b-cdn.net/wp-content/uploads/2019/02/xampp-logo.png;" vertex="1" parent="1">
          <mxGeometry x="1480" y="660" width="259.88" height="270" as="geometry" />
        </mxCell>
        <mxCell id="s-XnbMuJp0DQDZAkzYUx-82" value="" style="html=1;shadow=0;dashed=0;align=center;verticalAlign=middle;shape=mxgraph.arrows2.twoWayArrow;dy=0.65;dx=22;rotation=90;" vertex="1" parent="1">
          <mxGeometry x="1107.5" y="902.5" width="235" height="60" as="geometry" />
        </mxCell>
        <mxCell id="s-XnbMuJp0DQDZAkzYUx-84" value="" style="image;aspect=fixed;html=1;points=[];align=center;fontSize=12;image=img/lib/azure2/general/Templates.svg;" vertex="1" parent="1">
          <mxGeometry x="1247" y="890" width="56.00000000000001" height="68" as="geometry" />
        </mxCell>
        <mxCell id="s-XnbMuJp0DQDZAkzYUx-85" value="Modelo" style="image;aspect=fixed;html=1;points=[];align=center;fontSize=12;image=img/lib/azure2/other/Storage_Actions.svg;" vertex="1" parent="1">
          <mxGeometry x="1196" y="531" width="68" height="68" as="geometry" />
        </mxCell>
        <mxCell id="s-XnbMuJp0DQDZAkzYUx-86" value="Controlador" style="image;aspect=fixed;html=1;points=[];align=center;fontSize=12;image=img/lib/azure2/preview/Static_Apps.svg;" vertex="1" parent="1">
          <mxGeometry x="1180" y="710" width="70" height="56.00000000000001" as="geometry" />
        </mxCell>
        <mxCell id="s-XnbMuJp0DQDZAkzYUx-87" value="Vista" style="image;aspect=fixed;html=1;points=[];align=center;fontSize=12;image=img/lib/azure2/other/AVS_VM.svg;" vertex="1" parent="1">
          <mxGeometry x="1160.03" y="1110" width="129.94" height="120" as="geometry" />
        </mxCell>
        <mxCell id="s-XnbMuJp0DQDZAkzYUx-88" style="edgeStyle=orthogonalEdgeStyle;rounded=0;orthogonalLoop=1;jettySize=auto;html=1;entryX=0.286;entryY=0.851;entryDx=0;entryDy=0;entryPerimeter=0;startArrow=block;startFill=1;" edge="1" parent="1" source="s-XnbMuJp0DQDZAkzYUx-86" target="s-XnbMuJp0DQDZAkzYUx-85">
          <mxGeometry relative="1" as="geometry" />
        </mxCell>
        <mxCell id="s-XnbMuJp0DQDZAkzYUx-89" value="" style="shape=image;verticalLabelPosition=bottom;labelBackgroundColor=default;verticalAlign=top;aspect=fixed;imageAspect=0;image=https://thumbs.dreamstime.com/b/htttp-web-glyphs-double-color-icon-http-vector-flat-elements-mobile-concept-apps-thin-line-icons-website-design-116018298.jpg;" vertex="1" parent="1">
          <mxGeometry x="1130.5" y="910" width="65.5" height="65.5" as="geometry" />
        </mxCell>
      </root>
    </mxGraphModel>
  </diagram>
</mxfile>
